<?xml version="1.0" standalone="no"?>
<!DOCTYPE svg PUBLIC "-//W3C//DTD SVG 20010904//EN"
 "http://www.w3.org/TR/2001/REC-SVG-20010904/DTD/svg10.dtd">
<svg version="1.0" xmlns="http://www.w3.org/2000/svg"
 width="800.000000pt" height="800.000000pt" viewBox="0 0 800.000000 800.000000"
 preserveAspectRatio="xMidYMid meet">
<g transform="translate(0.000000,800.000000) scale(0.100000,-0.100000)"
fill="#409eff" stroke="none">
<path d="M6006 7973 c-9 -9 -7 -33 3 -33 12 0 22 28 12 34 -5 3 -11 3 -15 -1z"/>
<path d="M5960 7939 c-8 -5 -27 -9 -42 -9 -15 0 -30 -4 -33 -10 -3 -5 -17 -10
-30 -10 -12 0 -25 -6 -28 -13 -3 -8 -19 -14 -35 -15 -17 0 -44 -8 -60 -16 -40
-21 -113 -46 -135 -46 -9 0 -26 -4 -37 -10 -11 -5 -29 -15 -40 -20 -11 -6 -37
-12 -57 -15 -21 -3 -42 -10 -48 -17 -5 -7 -23 -14 -39 -15 -16 -1 -32 -6 -35
-11 -3 -5 -34 -15 -68 -22 -35 -8 -63 -17 -63 -21 0 -4 -15 -11 -32 -14 -45
-10 -108 -38 -108 -48 0 -4 -4 -5 -10 -2 -5 3 -16 3 -22 -2 -7 -4 -21 -9 -31
-10 -10 -2 -39 -14 -65 -28 -26 -14 -55 -25 -65 -25 -9 0 -25 -4 -35 -10 -37
-20 -207 -89 -229 -93 -10 -2 -32 -11 -50 -20 -18 -9 -41 -17 -53 -17 -12 0
-19 -4 -16 -9 4 -5 -15 -17 -41 -26 -27 -9 -56 -21 -65 -26 -10 -5 -27 -9 -38
-9 -11 0 -20 -4 -20 -10 0 -5 -9 -10 -19 -10 -11 0 -23 -4 -26 -10 -3 -5 -17
-10 -29 -10 -13 0 -29 -7 -36 -15 -7 -8 -16 -15 -21 -15 -4 0 -20 -5 -36 -12
-15 -6 -31 -11 -35 -10 -5 1 -8 -2 -8 -8 0 -5 -5 -10 -11 -10 -7 0 -30 -9 -53
-19 -23 -11 -68 -31 -101 -46 -33 -14 -77 -35 -98 -46 -22 -10 -45 -19 -53
-19 -8 0 -14 -4 -14 -10 0 -5 -6 -10 -14 -10 -7 0 -39 -14 -70 -30 -31 -17
-57 -30 -58 -29 -9 2 -66 -25 -80 -38 -10 -9 -26 -17 -35 -18 -24 -2 -55 -16
-71 -32 -7 -7 -20 -13 -27 -13 -8 0 -37 -13 -65 -30 -28 -16 -55 -30 -60 -30
-6 0 -10 -4 -10 -10 0 -5 -7 -6 -17 -3 -9 4 -14 2 -10 -3 3 -6 -9 -16 -28 -23
-44 -15 -221 -116 -242 -136 -8 -9 -28 -19 -44 -22 -16 -3 -29 -10 -29 -15 0
-5 -4 -7 -9 -3 -6 3 -15 -4 -21 -15 -6 -11 -21 -20 -34 -20 -13 0 -26 -6 -29
-14 -6 -14 -44 -39 -79 -52 -10 -3 -18 -10 -18 -15 0 -5 -7 -9 -15 -9 -8 0
-19 -9 -25 -20 -6 -11 -17 -20 -26 -20 -8 0 -26 -11 -40 -25 -14 -14 -28 -25
-31 -25 -10 0 -107 -66 -136 -94 -15 -14 -31 -26 -34 -26 -7 0 -28 -19 -160
-150 -56 -55 -107 -100 -114 -100 -7 0 -10 -3 -6 -6 3 -4 0 -12 -6 -19 -7 -7
-29 -32 -48 -55 -18 -24 -46 -57 -60 -74 -14 -17 -32 -42 -39 -56 -7 -14 -22
-31 -32 -38 -10 -7 -16 -17 -13 -22 3 -5 -3 -13 -12 -19 -10 -6 -14 -11 -9
-11 4 0 -3 -15 -18 -34 -14 -19 -26 -42 -26 -50 0 -9 -4 -16 -10 -16 -5 0 -17
-22 -27 -50 -10 -27 -21 -50 -26 -50 -9 0 -28 -45 -34 -80 -2 -14 -11 -32 -19
-41 -8 -8 -14 -23 -14 -32 0 -9 -4 -18 -9 -21 -7 -5 -37 -97 -46 -148 -3 -12
-9 -35 -15 -52 -5 -17 -13 -51 -16 -76 -3 -25 -9 -56 -12 -70 -9 -44 -12 -502
-3 -514 5 -6 12 -42 15 -79 3 -38 13 -81 21 -98 9 -16 15 -32 15 -36 1 -22 25
-93 46 -135 13 -26 24 -53 24 -59 0 -7 11 -27 25 -45 14 -18 25 -39 25 -48 0
-8 6 -21 14 -28 7 -8 16 -24 20 -36 4 -12 13 -28 20 -34 6 -7 22 -30 35 -51
13 -21 28 -43 34 -50 7 -6 25 -30 42 -52 57 -77 167 -175 232 -209 18 -9 36
-22 40 -28 17 -27 176 -117 196 -110 4 1 7 -3 7 -8 0 -6 6 -10 14 -10 8 0 16
-4 18 -9 2 -6 19 -13 38 -16 19 -3 37 -10 40 -14 8 -12 42 -22 35 -11 -3 6 -1
10 4 10 6 0 11 -5 11 -11 0 -5 4 -8 9 -4 5 3 12 1 15 -4 16 -26 126 -44 291
-49 221 -7 207 -7 305 3 47 4 100 9 118 10 18 1 35 5 39 8 3 4 12 2 18 -3 9
-7 27 -7 54 -1 23 5 43 5 46 0 3 -4 17 -4 31 1 14 6 54 10 89 10 35 0 75 4 89
9 18 8 28 6 37 -5 10 -12 14 -12 20 -2 6 9 35 14 86 15 136 3 254 13 271 22
23 11 95 16 237 15 110 -1 125 -3 180 -29 33 -16 66 -35 73 -42 7 -7 21 -18
31 -25 9 -7 31 -33 48 -58 26 -40 34 -59 50 -120 8 -30 2 -135 -9 -174 -6 -23
-12 -46 -14 -53 -3 -15 -44 -72 -71 -99 -13 -12 -23 -24 -23 -27 0 -4 -31 -38
-70 -76 -38 -39 -70 -75 -70 -80 0 -5 -9 -8 -20 -6 -13 2 -20 -2 -20 -11 0 -8
-13 -27 -29 -42 -60 -56 -117 -112 -146 -142 -16 -18 -40 -36 -53 -41 -13 -5
-21 -13 -17 -18 3 -6 -4 -15 -15 -21 -11 -6 -20 -17 -20 -25 0 -8 -4 -15 -8
-15 -4 0 -30 -20 -57 -44 -27 -25 -53 -43 -57 -40 -4 3 -8 -2 -8 -11 0 -9 -18
-33 -41 -53 -76 -69 -109 -103 -109 -112 0 -4 -16 -18 -35 -30 -19 -12 -43
-32 -53 -45 -10 -13 -34 -33 -53 -44 -19 -12 -30 -21 -25 -21 6 0 -18 -27 -52
-60 -35 -33 -67 -60 -72 -60 -6 0 -10 -7 -10 -15 0 -7 -6 -18 -14 -22 -18 -11
-161 -140 -248 -226 -38 -37 -80 -75 -94 -83 -13 -9 -24 -23 -24 -30 0 -8 -4
-14 -8 -14 -15 0 -122 -96 -292 -260 -88 -85 -149 -139 -171 -150 -10 -6 -18
-14 -16 -19 2 -10 -100 -111 -113 -111 -5 0 -17 -12 -27 -28 -10 -15 -26 -33
-36 -41 -10 -7 -31 -25 -47 -40 -15 -14 -65 -60 -110 -101 -45 -41 -102 -94
-127 -117 -24 -23 -58 -52 -74 -65 -35 -27 -79 -69 -130 -124 -54 -59 -160
-157 -194 -178 -16 -11 -37 -28 -46 -38 -9 -10 -20 -18 -25 -18 -5 0 -16 -8
-24 -18 -46 -56 -47 -55 23 -28 36 13 75 30 87 36 12 6 29 13 39 15 9 2 41 15
71 29 30 14 59 26 66 26 7 0 20 7 29 16 9 9 19 14 22 11 3 -4 19 1 36 9 16 9
51 22 78 30 27 8 49 19 49 23 0 5 20 12 45 15 25 4 50 13 57 19 7 7 24 13 38
15 14 2 48 14 75 27 28 12 61 26 75 29 46 12 139 59 134 68 -3 4 -1 8 5 8 5 0
12 -4 15 -9 3 -4 29 3 58 17 29 14 58 26 63 27 13 1 45 14 67 26 10 5 25 9 34
9 9 0 46 14 83 31 36 17 75 35 86 39 11 4 34 13 50 21 17 7 34 11 40 10 5 -1
14 4 20 12 6 8 22 17 35 19 14 2 24 9 23 15 -2 7 4 10 13 6 9 -3 19 -2 23 3 3
5 33 18 66 29 33 10 62 22 65 25 3 4 38 19 78 35 39 15 72 33 72 38 0 6 3 7 7
4 3 -4 12 -2 20 4 7 6 13 9 13 6 0 -3 21 5 47 18 25 13 50 22 55 19 4 -3 8 1
8 9 0 9 14 17 36 20 20 3 43 12 51 19 8 6 20 13 27 14 27 5 66 24 66 34 0 5 9
10 19 10 10 0 98 38 195 85 97 47 179 85 184 86 10 1 40 18 87 48 22 14 45 26
50 27 6 1 44 18 86 38 42 20 80 36 86 36 6 0 13 7 17 15 3 8 15 15 26 15 11 0
20 4 20 8 0 5 18 17 40 28 22 10 40 22 40 25 0 4 16 10 35 13 19 4 35 10 35
14 0 4 29 22 65 40 36 19 65 38 65 44 0 6 3 9 6 5 9 -8 64 21 64 33 0 6 6 10
13 10 8 0 22 9 32 20 10 11 21 18 25 15 3 -2 14 5 23 16 9 10 22 19 29 19 7 0
36 20 63 45 28 24 53 45 58 45 4 0 15 8 25 18 10 9 36 30 57 47 84 62 385 360
385 380 0 4 14 18 30 32 17 14 29 28 26 30 -5 5 4 18 42 58 12 13 22 29 22 35
0 5 5 10 10 10 6 0 10 7 10 15 0 8 12 26 28 42 15 15 27 32 28 38 0 5 10 30
22 54 12 25 22 50 22 57 0 6 7 15 16 18 8 3 13 10 10 14 -3 5 5 24 16 43 12
19 23 43 25 53 2 11 10 33 18 49 8 17 15 35 15 42 0 17 24 65 33 65 4 0 3 9
-3 19 -7 13 -7 20 1 23 5 2 11 15 13 30 1 15 8 33 14 41 7 8 9 17 6 20 -4 4
-2 19 4 34 6 15 14 53 17 83 4 30 9 69 11 85 15 129 20 280 11 335 -4 19 -9
58 -12 85 -3 28 -14 88 -26 135 -11 47 -22 96 -25 110 -9 42 -96 244 -115 265
-9 11 -20 31 -24 44 -4 13 -15 33 -25 45 -17 19 -65 82 -143 183 -18 23 -36
42 -41 43 -5 0 -22 16 -39 35 -16 19 -33 35 -38 35 -5 0 -25 16 -45 35 -19 19
-42 35 -50 35 -7 0 -18 9 -24 20 -6 11 -17 20 -25 20 -8 0 -15 3 -15 8 0 7
-30 25 -62 38 -10 3 -18 10 -18 15 0 5 -6 6 -14 3 -7 -3 -16 1 -19 9 -3 9 -19
18 -35 22 -17 3 -33 13 -36 21 -3 9 -11 12 -16 9 -6 -4 -17 -1 -25 5 -8 7 -15
9 -15 6 0 -4 -10 0 -22 8 -12 9 -28 16 -35 16 -6 0 -24 5 -40 12 -29 12 -50
16 -96 19 -15 1 -32 8 -38 16 -14 16 -33 18 -23 2 4 -7 0 -9 -14 -5 -11 4 -31
10 -44 13 -30 8 -338 10 -338 2 0 -4 -40 -5 -90 -4 -49 1 -90 -2 -90 -6 0 -5
-10 -7 -22 -5 -13 2 -34 -1 -47 -6 -13 -4 -29 -5 -35 0 -16 11 -74 6 -91 -8
-9 -8 -15 -8 -15 -2 0 6 -24 10 -59 9 -33 -1 -58 -5 -55 -8 2 -4 -9 -7 -24 -7
-37 0 -132 -11 -141 -16 -4 -3 -13 -1 -21 4 -7 4 -23 4 -36 -2 -17 -8 -27 -8
-38 1 -10 8 -16 9 -21 2 -3 -6 -20 -11 -38 -11 -60 0 -137 -12 -137 -21 0 -6
-7 -6 -17 -1 -10 5 -40 7 -68 5 -27 -2 -61 -4 -75 -3 -26 2 -28 2 -95 -3 -22
-2 -44 0 -50 3 -5 4 -36 12 -67 19 -31 7 -62 19 -68 27 -7 7 -21 14 -31 14
-10 0 -23 9 -29 19 -5 11 -18 22 -28 25 -10 4 -29 25 -42 49 -13 23 -26 44
-30 47 -3 3 -13 30 -22 61 -18 64 -17 241 1 247 6 2 11 10 11 18 0 8 10 35 22
61 19 41 58 87 172 204 14 15 26 32 26 38 0 6 6 11 13 11 8 0 24 11 37 25 12
13 26 22 31 20 4 -3 10 3 13 13 6 19 98 110 150 150 16 12 26 22 21 22 -9 0
45 51 96 90 17 14 41 36 53 49 42 47 154 157 202 198 28 22 92 83 144 134 148
144 308 289 320 289 5 0 10 6 10 13 0 6 14 21 30 32 16 11 30 24 30 28 0 9 14
23 130 127 46 41 109 100 141 130 71 69 173 159 221 198 21 16 35 32 32 34 -2
3 7 13 21 22 28 18 64 50 125 109 22 20 44 37 51 37 6 0 9 6 6 13 -3 9 8 19
30 28 19 7 41 26 49 41 8 15 19 28 24 28 5 0 32 23 60 50 28 28 54 50 58 50 4
0 36 28 72 62 36 34 68 62 71 61 4 -1 34 23 66 55 77 73 138 128 192 172 24
19 65 56 92 83 27 26 54 47 59 47 12 0 13 27 2 34 -4 2 -14 1 -22 -5z"/>
</g>
</svg>

