<?xml version="1.0" standalone="no"?>
<!DOCTYPE svg PUBLIC "-//W3C//DTD SVG 20010904//EN"
 "http://www.w3.org/TR/2001/REC-SVG-20010904/DTD/svg10.dtd">
<svg version="1.0" xmlns="http://www.w3.org/2000/svg"
 width="200.000000pt" height="200.000000pt" viewBox="0 0 200.000000 200.000000"
 preserveAspectRatio="xMidYMid meet">
<g transform="translate(0.000000,200.000000) scale(0.100000,-0.100000)"
fill="#ffce2b" stroke="none">
<path d="M556 1979 c-246 -60 -445 -247 -522 -489 -24 -75 -29 -111 -29 -210
0 -139 12 -199 62 -309 65 -145 191 -274 340 -348 57 -28 97 -43 102 -37 16
17 62 157 54 164 -4 4 -24 13 -43 20 -187 72 -325 267 -335 474 -8 159 47 299
159 410 114 114 243 166 401 161 155 -5 277 -62 392 -185 37 -39 113 -182 113
-212 0 -15 4 -18 18 -13 124 52 208 61 299 31 97 -32 164 -93 215 -194 28 -57
32 -73 32 -150 0 -77 -4 -94 -32 -153 -36 -74 -95 -135 -169 -172 -36 -19 -68
-50 -125 -120 -46 -58 -71 -97 -64 -100 15 -6 83 1 154 14 139 27 295 149 360
281 155 316 -3 673 -342 775 -29 9 -90 16 -143 16 l-91 0 -48 66 c-102 142
-270 252 -439 287 -78 16 -241 12 -319 -7z"/>
<path d="M1061 1180 l-153 -5 -14 -35 c-7 -19 -35 -98 -63 -175 -27 -77 -70
-198 -95 -268 -25 -70 -46 -133 -46 -140 0 -10 36 -12 145 -12 80 1 145 0 145
-2 0 -3 -100 -337 -156 -523 -5 -19 14 3 161 185 66 82 186 230 267 329 81
100 148 184 148 188 0 3 -60 6 -132 6 -73 0 -143 1 -154 1 -20 1 -15 12 47
114 38 61 72 118 75 125 4 7 33 56 65 110 32 53 56 98 54 100 -6 7 -130 7
-294 2z"/>
</g>
</svg>
